<svg xmlns="http://www.w3.org/2000/svg" width="56.875" height="67" viewBox="0 0 56.875 67">
  <path id="Icon_metro-files-empty" data-name="Icon metro-files-empty" d="M58.7,25.291a58.827,58.827,0,0,0-5.534-6.524,58.128,58.128,0,0,0-6.329-5.7c-3.274-2.475-4.862-2.761-5.772-2.761H17.7a5.164,5.164,0,0,0-5.078,5.234V63.694A5.164,5.164,0,0,0,17.7,68.928H56.3a5.164,5.164,0,0,0,5.078-5.234V31.241c0-.938-.278-2.575-2.678-5.949Zm-8.406-3.563A56.592,56.592,0,0,1,54.9,27.053H45.124V16.98a55.948,55.948,0,0,1,5.165,4.748Zm7.022,41.965A1.046,1.046,0,0,1,56.3,64.741H17.7a1.046,1.046,0,0,1-1.016-1.047V15.537A1.046,1.046,0,0,1,17.7,14.491H41.061V29.147a2.063,2.063,0,0,0,2.031,2.094H57.311Zm-18.6-59c-3.274-2.475-4.862-2.761-5.772-2.761H9.577A5.164,5.164,0,0,0,4.5,7.162V55.319a5.206,5.206,0,0,0,4.062,5.129V7.162A1.046,1.046,0,0,1,9.577,6.116H40.482c-.612-.518-1.208-1-1.774-1.427Z" transform="translate(-4.499 -1.928)" fill="#32dbc6"/>
</svg>
