<svg xmlns="http://www.w3.org/2000/svg" width="60" height="40" viewBox="0 0 60 40">
  <path id="Icon_awesome-folder-open" data-name="Icon awesome-folder-open" d="M59.656,28.26,52.111,41.192A6.666,6.666,0,0,1,46.353,44.5H4.69a2.5,2.5,0,0,1-2.159-3.76l7.544-12.933A6.667,6.667,0,0,1,15.833,24.5H57.5a2.5,2.5,0,0,1,2.159,3.76ZM15.833,21.167H50v-5a5,5,0,0,0-5-5H28.333L21.667,4.5H5a5,5,0,0,0-5,5V38.463L7.2,26.128A10.034,10.034,0,0,1,15.833,21.167Z" transform="translate(0 -4.5)" fill="#32dbc6"/>
</svg>
