<svg xmlns="http://www.w3.org/2000/svg" width="92.819" height="76.38" viewBox="0 0 92.819 76.38">
  <path id="Icon_awesome-folder-open" data-name="Icon awesome-folder-open" d="M92.287,49.869l-11.671,24.7c-1.848,3.911-5.24,6.316-8.908,6.316H7.256c-2.985,0-4.845-4-3.341-7.179l11.671-24.7c1.848-3.911,5.24-6.316,8.908-6.316H88.946c2.985,0,4.845,4,3.341,7.179ZM24.494,36.325H77.35V26.777c0-5.273-3.463-9.547-7.735-9.547H43.831L33.518,4.5H7.735C3.463,4.5,0,8.774,0,14.047v55.3L11.131,45.8C13.893,39.955,19.013,36.325,24.494,36.325Z" transform="translate(0 -4.5)" fill="#32dbc6"/>
</svg>
