<svg xmlns="http://www.w3.org/2000/svg" width="70.393" height="67" viewBox="0 0 70.393 67">
  <path id="Icon_awesome-map-marked-alt" data-name="Icon awesome-map-marked-alt" d="M35.2,0c-8.5,0-15.4,7.382-15.4,16.488,0,7.362,10.064,20.78,13.92,25.651a1.847,1.847,0,0,0,2.957,0c3.856-4.871,13.92-18.289,13.92-25.651C50.595,7.382,43.7,0,35.2,0Zm0,21.984a5.323,5.323,0,0,1-5.133-5.5,5.323,5.323,0,0,1,5.133-5.5,5.323,5.323,0,0,1,5.133,5.5A5.323,5.323,0,0,1,35.2,21.984ZM2.459,28.259A4.2,4.2,0,0,0,0,32.147V64.9a1.974,1.974,0,0,0,2.681,1.945l16.872-8.223v-30.5a41.032,41.032,0,0,1-2.6-6.074ZM35.2,47.066a5.69,5.69,0,0,1-4.462-2.219c-2.4-3.036-4.958-6.493-7.27-10.04V58.624L46.928,67V34.809c-2.312,3.545-4.866,7-7.27,10.04A5.693,5.693,0,0,1,35.2,47.066ZM67.711,21.089,50.839,29.313V67l17.095-7.322a4.2,4.2,0,0,0,2.459-3.888V23.034A1.974,1.974,0,0,0,67.711,21.089Z" fill="#32dbc6"/>
</svg>
