<svg xmlns="http://www.w3.org/2000/svg" width="91.114" height="75.928" viewBox="0 0 91.114 75.928">
  <path id="Icon_material-perm-media" data-name="Icon material-perm-media" d="M7.593,18.186H0V37.168H.038L0,71.335a7.615,7.615,0,0,0,7.593,7.593H75.928V71.335H7.593Zm75.928-7.593H53.15L45.557,3H22.778a7.583,7.583,0,0,0-7.555,7.593L15.186,56.15a7.615,7.615,0,0,0,7.593,7.593H83.521a7.615,7.615,0,0,0,7.593-7.593V18.186A7.615,7.615,0,0,0,83.521,10.593ZM26.575,52.353,43.659,29.575,56.946,46.7l9.491-11.427L79.724,52.353Z" transform="translate(0 -3)" fill="#32dbc6"/>
</svg>
