<svg xmlns="http://www.w3.org/2000/svg" width="21.75" height="21.75" viewBox="0 0 21.75 21.75">
  <path id="Icon_awesome-rss" data-name="Icon awesome-rss" d="M6.218,20.891a3.109,3.109,0,1,1-3.109-3.109A3.109,3.109,0,0,1,6.218,20.891Zm8.528,2.294A14.762,14.762,0,0,0,.815,9.254.776.776,0,0,0,0,10.03v2.334a.777.777,0,0,0,.723.778A10.878,10.878,0,0,1,10.858,23.277a.777.777,0,0,0,.778.723H13.97a.776.776,0,0,0,.777-.815Zm7,.014A21.765,21.765,0,0,0,.8,2.25a.776.776,0,0,0-.8.777V5.361a.779.779,0,0,0,.75.777A17.869,17.869,0,0,1,17.862,23.25a.779.779,0,0,0,.777.75h2.334a.776.776,0,0,0,.777-.8Z" transform="translate(0 -2.25)" fill="#32dbc6"/>
</svg>
