<svg xmlns="http://www.w3.org/2000/svg" width="26.4" height="21.442" viewBox="0 0 26.4 21.442">
  <path id="Icon_awesome-twitter" data-name="Icon awesome-twitter" d="M23.686,8.724c.017.235.017.469.017.7A15.289,15.289,0,0,1,8.309,24.822,15.29,15.29,0,0,1,0,22.393a11.193,11.193,0,0,0,1.307.067,10.836,10.836,0,0,0,6.717-2.312A5.42,5.42,0,0,1,2.965,16.4a6.823,6.823,0,0,0,1.022.084A5.723,5.723,0,0,0,5.411,16.3a5.411,5.411,0,0,1-4.339-5.31v-.067a5.449,5.449,0,0,0,2.446.687A5.419,5.419,0,0,1,1.843,4.369,15.38,15.38,0,0,0,13,10.031a6.108,6.108,0,0,1-.134-1.24,5.416,5.416,0,0,1,9.364-3.7,10.653,10.653,0,0,0,3.434-1.307,5.4,5.4,0,0,1-2.379,2.982A10.847,10.847,0,0,0,26.4,5.927a11.631,11.631,0,0,1-2.714,2.8Z" transform="translate(0 -3.381)" fill="#32dbc6"/>
</svg>
