<svg xmlns="http://www.w3.org/2000/svg" width="108.025" height="86.42" viewBox="0 0 108.025 86.42">
  <path id="Icon_awesome-user-check" data-name="Icon awesome-user-check" d="M37.809,43.21A21.6,21.6,0,1,0,16.2,21.6,21.6,21.6,0,0,0,37.809,43.21Zm15.123,5.4H50.113a29.382,29.382,0,0,1-24.609,0H22.685A22.691,22.691,0,0,0,0,71.3v7.022a8.1,8.1,0,0,0,8.1,8.1H67.515a8.1,8.1,0,0,0,8.1-8.1V71.3A22.691,22.691,0,0,0,52.932,48.611Zm54.519-21.672L102.758,22.2a2,2,0,0,0-2.836-.017L82.234,39.733,74.554,32a2,2,0,0,0-2.836-.017l-4.743,4.709a2,2,0,0,0-.017,2.836l13.79,13.891a2,2,0,0,0,2.836.017l23.85-23.664a2.017,2.017,0,0,0,.017-2.836Z" fill="#32dbc6"/>
</svg>
